# xmcd CD database file
#
# Track frame offsets:
#	180
#	16555
#	30471
#	46303
#	59439
#	74710
#	89776
#	116294
#	132092
#	145827
#
# Disc length: 2160 seconds
#
# Revision: 0
# Processed by: cddbd v1.5.2PL0 Copyright (c) Steve Scherf et al.
# Submitted via: CDex 1.70beta2
#
DISCID=86086e0a
DTITLE=Tool - Extasy
DYEAR=1995
DGENRE=New Age
TTITLE0=If you wanna dance
TTITLE1=Got 2 be better
TTITLE2=Cry for love
TTITLE3=Let's Celebrate
TTITLE4=Feel my desire
TTITLE5=Move your body
TTITLE6=Transmission flight
TTITLE7=We need friends
TTITLE8=Diss me
TTITLE9=He's from dwontown
EXTD=YEAR: 1995
EXTT0=
EXTT1=
EXTT2=
EXTT3=
EXTT4=
EXTT5=
EXTT6=
EXTT7=
EXTT8=
EXTT9=
PLAYORDER=
